<?xml version="1.0" encoding="UTF-8"?>
<svg width="50px" height="50px" viewBox="0 0 50 50" version="1.1" xmlns="http://www.w3.org/2000/svg" xmlns:xlink="http://www.w3.org/1999/xlink">
    <!-- Generator: Sketch 42 (36781) - http://www.bohemiancoding.com/sketch -->
    <title>student</title>
    <desc>Created with Sketch.</desc>
    <defs>
        <path d="M7,9.99539757 C7,9.44565467 7.44736519,9 7.99815369,9 L36.0018463,9 C36.5531114,9 37,9.4556644 37,9.99539757 L37,18.0046024 C37,18.5543453 36.5985962,19.2040153 36.1021596,19.4436914 C36.1021596,19.4436914 29.5,23.0030518 22,23.0030518 C14.5,23.0030518 7.89784041,19.4436914 7.89784041,19.4436914 C7.40197684,19.1986474 7,18.5443356 7,18.0046024 L7,9.99539757 Z" id="path-1"></path>
        <mask id="mask-2" maskContentUnits="userSpaceOnUse" maskUnits="objectBoundingBox" x="0" y="0" width="30" height="14.0030518" fill="white">
            <use xlink:href="#path-1"></use>
        </mask>
        <polygon id="path-3" points="0 8 22 0 44 8 22 15"></polygon>
        <mask id="mask-4" maskContentUnits="userSpaceOnUse" maskUnits="objectBoundingBox" x="0" y="0" width="44" height="15" fill="white">
            <use xlink:href="#path-3"></use>
        </mask>
    </defs>
    <g id="Symbols" stroke="none" stroke-width="1" fill="none" fill-rule="evenodd">
        <g id="student">
            <g transform="translate(3.000000, 13.000000)">
                <use id="Rectangle-5" stroke="#313131" mask="url(#mask-2)" stroke-width="4" xlink:href="#path-1"></use>
                <rect id="Rectangle-16" fill="#5784FF" opacity="0.900000036" x="39" y="8" width="3" height="8"></rect>
                <use id="Path-8" stroke="#313131" mask="url(#mask-4)" stroke-width="4" fill="#FFFFFF" xlink:href="#path-3"></use>
            </g>
        </g>
    </g>
</svg>